<?xml version="1.0" encoding="UTF-8"?> <svg xmlns="http://www.w3.org/2000/svg" width="444" height="145" viewBox="0 0 444 145" fill="none"><path d="M32.451 50.7696C38.3408 50.7696 43.7079 52.2096 48.5268 55.0896C53.3457 57.9696 57.1957 61.8308 60.0641 66.6478C62.9325 71.4648 64.3603 76.8043 64.3603 82.6535C64.3603 88.5027 62.9325 93.9059 60.0641 98.7229C57.1957 103.54 53.3584 107.388 48.5268 110.256C43.7079 113.123 38.3408 114.55 32.451 114.55C28.7794 114.55 25.2864 113.964 21.9718 112.792C18.6572 111.619 15.6358 109.975 12.9076 107.873V127.23C12.9076 134.022 7.4003 139.527 0.605383 139.527H0.541641V82.4114C0.669126 76.5239 2.14794 71.1972 4.99085 66.4312C7.83375 61.6652 11.671 57.8676 16.4899 55.0259C21.3089 52.1841 26.625 50.7568 32.4382 50.7568L32.451 50.7696ZM32.451 102.202C37.8563 102.202 42.4585 100.29 46.2703 96.48C50.0821 92.6698 51.9944 88.0694 51.9944 82.6662C51.9944 77.263 50.0821 72.7137 46.2703 68.8779C42.4585 65.0422 37.8563 63.1306 32.451 63.1306C27.0457 63.1306 22.4945 65.0422 18.6572 68.8779C14.8199 72.7137 12.9076 77.3013 12.9076 82.6662C12.9076 88.0312 14.8199 92.6698 18.6572 96.48C22.4945 100.29 27.0839 102.202 32.451 102.202Z" fill="#031133"></path><path d="M68.0702 82.9713C68.0702 77.1221 69.5107 71.7827 72.4046 66.9657C75.2858 62.1487 79.1486 58.2875 83.9675 55.4075C88.7864 52.5275 94.128 51.0747 99.9795 51.0747V63.4358C94.6252 63.4358 90.023 65.3473 86.1857 69.183C82.3484 73.0188 80.4361 77.6064 80.4361 82.9713V114.562H68.0702V82.9713Z" fill="#031133"></path><path d="M133.062 50.7695C138.952 50.7695 144.319 52.1968 149.138 55.064C153.956 57.9313 157.807 61.7798 160.675 66.6223C163.543 71.4648 164.971 76.817 164.971 82.6662C164.971 88.5154 163.543 93.8676 160.675 98.7101C157.807 103.553 153.969 107.401 149.138 110.268C144.319 113.136 138.952 114.563 133.062 114.563C127.172 114.563 121.869 113.136 117.05 110.268C112.231 107.401 108.368 103.553 105.487 98.7101C102.606 93.8676 101.152 88.5281 101.152 82.6662C101.152 76.8042 102.593 71.4648 105.487 66.6223C108.368 61.7798 112.231 57.9313 117.05 55.064C121.869 52.1968 127.21 50.7695 133.062 50.7695ZM133.062 102.202C138.467 102.202 143.069 100.29 146.881 96.48C150.693 92.6697 152.605 88.0694 152.605 82.6662C152.605 77.263 150.693 72.6626 146.881 68.8524C143.069 65.0421 138.467 63.1306 133.062 63.1306C127.656 63.1306 123.105 65.0421 119.268 68.8524C115.431 72.6626 113.518 77.263 113.518 82.6662C113.518 88.0694 115.431 92.6697 119.268 96.48C123.105 100.29 127.695 102.202 133.062 102.202Z" fill="#031133"></path><path d="M412.074 50.7695C417.964 50.7695 423.331 52.1968 428.15 55.064C432.969 57.9313 436.819 61.7798 439.687 66.6223C442.556 71.4648 443.984 76.817 443.984 82.6662C443.984 88.5154 442.556 93.8676 439.687 98.7101C436.819 103.553 432.982 107.401 428.15 110.268C423.331 113.136 417.964 114.563 412.074 114.563C406.184 114.563 400.881 113.136 396.062 110.268C391.243 107.401 387.38 103.553 384.499 98.7101C381.618 93.8676 380.165 88.5281 380.165 82.6662C380.165 76.8042 381.605 71.4648 384.499 66.6223C387.38 61.7798 391.243 57.9313 396.062 55.064C400.881 52.1968 406.223 50.7695 412.074 50.7695ZM412.074 102.202C417.48 102.202 422.082 100.29 425.894 96.48C429.705 92.6697 431.618 88.0694 431.618 82.6662C431.618 77.263 429.705 72.6626 425.894 68.8524C422.082 65.0421 417.467 63.1306 412.074 63.1306C406.682 63.1306 402.118 65.0421 398.28 68.8524C394.443 72.6626 392.531 77.263 392.531 82.6662C392.531 88.0694 394.443 92.6697 398.28 96.48C402.118 100.29 406.707 102.202 412.074 102.202Z" fill="#031133"></path><path d="M371.661 66.8011C358.48 44.5894 324.135 44.9972 312.687 68.1009C296.879 99.9975 333.467 130.862 362.483 110.638C362.534 124.707 352.845 132.519 338.936 130.875C335.354 130.454 330.573 126.963 328.98 127.256C327.769 127.485 320.183 135.08 320.54 136.482C339.497 152.628 368.64 143.72 374.823 119.737C377.946 107.631 378.087 77.6329 371.649 66.8011H371.661ZM355.777 96.4804C351.965 100.291 347.35 102.202 341.958 102.202C336.565 102.202 332.001 100.291 328.164 96.4804C324.836 93.1798 322.962 89.2804 322.516 84.7819C322.236 80.3345 323.23 75.8489 325.461 72.1533C326.226 70.9936 327.118 69.885 328.164 68.84C329.069 67.9352 330.025 67.1451 331.019 66.457C332.677 65.412 334.576 64.6219 336.718 64.1887C341.231 63.2712 345.119 63.3604 348.434 64.1887C351.136 65.1189 353.597 66.6609 355.777 68.84C359.589 72.6503 361.501 77.2506 361.501 82.6538C361.501 88.057 359.589 92.6574 355.777 96.4676V96.4804Z" fill="#031133"></path><path d="M220.121 56.2241V36.1788C220.121 29.7306 225.348 24.5059 231.798 24.5059H232.499V81.6216C232.372 87.5091 230.893 92.8358 228.05 97.6018C225.207 102.368 221.383 106.165 216.577 109.007C211.77 111.849 206.442 113.276 200.59 113.276C194.739 113.276 189.384 111.849 184.54 108.982C179.695 106.114 175.845 102.266 172.977 97.4234C170.109 92.5809 168.681 87.2415 168.681 81.3795C168.681 75.5176 170.109 70.1781 172.977 65.3356C175.845 60.4931 179.695 56.6446 184.54 53.7774C189.384 50.9101 194.726 49.4829 200.59 49.4829C204.262 49.4829 207.755 50.0691 211.069 51.2414C214.384 52.4138 217.405 54.0705 220.133 56.2114L220.121 56.2241ZM200.577 100.915C205.983 100.915 210.585 99.0036 214.397 95.1933C218.208 91.383 220.121 86.7827 220.121 81.3795C220.121 75.9763 218.208 71.376 214.397 67.5657C210.585 63.7554 205.97 61.8439 200.577 61.8439C195.185 61.8439 190.57 63.7554 186.758 67.5657C182.946 71.376 181.034 75.9763 181.034 81.3795C181.034 86.7827 182.946 91.383 186.758 95.1933C190.57 99.0036 195.172 100.915 200.577 100.915Z" fill="#F04D22"></path><path d="M304.286 113.263H291.563V106.955C278.445 112.715 269.253 115.633 255.498 109.313C222.836 94.2883 236.299 42.4993 274.416 46.3095C279.49 46.8193 290.747 52.9233 292.06 52.7322C292.787 52.6302 298.715 43.1746 304.273 46.3095V113.263H304.286ZM268.425 59.2185C242.099 61.78 244.381 104.19 275.602 99.2837C298.001 95.7665 294.559 56.6699 268.425 59.2185Z" fill="#F04D22"></path><path d="M211.732 9.39111H195.708V19.0506C195.708 19.0506 196.434 27.2318 202.808 27.2318H211.732V9.39111Z" fill="#F04D22"></path><path d="M234.679 0H219.381V9.2262C219.381 9.2262 220.07 17.0379 226.164 17.0379H234.679V0Z" fill="#F04D22"></path><path d="M260.317 20.8606H248.869V13.9536C248.869 13.9536 249.391 8.11719 253.942 8.11719H260.317V20.8606Z" fill="#F04D22"></path><path d="M278.164 33.6042H266.716V26.6973C266.716 26.6973 267.239 20.8608 271.79 20.8608H278.164V33.6042Z" fill="#F04D22"></path></svg> 