<?xml version="1.0" encoding="UTF-8"?>
<svg xmlns="http://www.w3.org/2000/svg" width="145" height="145" viewBox="0 0 145 145" fill="none">
  <rect width="145" height="145" rx="20" fill="#031133"/>
  <path d="M72.451 30.7696C78.3408 30.7696 83.7079 32.2096 88.5268 35.0896C93.3457 37.9696 97.1957 41.8308 100.064 46.6478C102.933 51.4648 104.36 56.8043 104.36 62.6535C104.36 68.5027 102.933 73.9059 100.064 78.7229C97.1957 83.54 93.3584 87.388 88.5268 90.256C83.7079 93.123 78.3408 94.55 72.451 94.55C68.7794 94.55 65.2864 93.964 61.9718 92.792C58.6572 91.619 55.6358 89.975 52.9076 87.873V107.23C52.9076 114.022 47.4003 119.527 40.6054 119.527H40.5416V62.4114C40.6691 56.5239 42.1479 51.1972 44.9909 46.4312C47.8338 41.6652 51.671 37.8676 56.4899 35.0259C61.3089 32.1841 66.625 30.7568 72.4382 30.7568L72.451 30.7696ZM72.451 82.202C77.8563 82.202 82.4585 80.29 86.2703 76.48C90.0821 72.6698 91.9944 68.0694 91.9944 62.6662C91.9944 57.263 90.0821 52.7137 86.2703 48.8779C82.4585 45.0422 77.8563 43.1306 72.451 43.1306C67.0457 43.1306 62.4945 45.0422 58.6572 48.8779C54.8199 52.7137 52.9076 57.3013 52.9076 62.6662C52.9076 68.0312 54.8199 72.6698 58.6572 76.48C62.4945 80.29 67.0839 82.202 72.451 82.202Z" fill="white"/>
</svg>